HIERARCHY
ROOT Hips
{
	OFFSET	0.00	0.00	0.00
	CHANNELS 6 Xposition Yposition Zposition Zrotation Xrotation Yrotation
	JOINT LeftUpLeg
	{
		OFFSET	 0.126116	-0.014019	-0.065224
		CHANNELS 3 Zrotation Xrotation Yrotation
		JOINT LeftLeg
		{
			OFFSET	 0.000000	 0.000000	 0.569914
			CHANNELS 3 Zrotation Xrotation Yrotation
			JOINT LeftFoot
			{
				OFFSET	 0.000000	 0.000000	 0.544423
				CHANNELS 3 Zrotation Xrotation Yrotation
				JOINT LeftToeBase
				{
					OFFSET	 0.000000	 0.000000	 0.207117
					CHANNELS 3 Zrotation Xrotation Yrotation
					End Site
					{
						OFFSET	 0.000000	 0.000000	 0.207117
					}
				}
			}
		}
	}
	JOINT RightUpLeg
	{
		OFFSET	-0.124023	-0.008373	-0.065224
		CHANNELS 3 Zrotation Xrotation Yrotation
		JOINT RightLeg
		{
			OFFSET	 0.000000	 0.000000	 0.570047
			CHANNELS 3 Zrotation Xrotation Yrotation
			JOINT RightFoot
			{
				OFFSET	 0.000000	 0.000000	 0.544354
				CHANNELS 3 Zrotation Xrotation Yrotation
				JOINT RightToeBase
				{
					OFFSET	 0.000000	 0.000000	 0.207540
					CHANNELS 3 Zrotation Xrotation Yrotation
					End Site
					{
						OFFSET	 0.000000	 0.000000	 0.207540
					}
				}
			}
		}
	}
	JOINT Spine
	{
		OFFSET	 0.000184	-0.007763	 0.117403
		CHANNELS 3 Zrotation Xrotation Yrotation
		JOINT Spine1
		{
			OFFSET	 0.000000	 0.000000	 0.137269
			CHANNELS 3 Zrotation Xrotation Yrotation
			JOINT Spine2
			{
				OFFSET	 0.000000	 0.000000	 0.156879
				CHANNELS 3 Zrotation Xrotation Yrotation
				JOINT LeftShoulder
				{
					OFFSET	 0.080501	-0.002496	 0.160144
					CHANNELS 3 Zrotation Xrotation Yrotation
					JOINT LeftArm
					{
						OFFSET	 0.000000	 0.000000	 0.164363
						CHANNELS 3 Zrotation Xrotation Yrotation
						JOINT LeftForeArm
						{
							OFFSET	 0.000000	 0.000000	 0.364576
							CHANNELS 3 Zrotation Xrotation Yrotation
							JOINT LeftHand
							{
								OFFSET	 0.000000	 0.000000	 0.360812
								CHANNELS 3 Zrotation Xrotation Yrotation
								JOINT LeftHandIndex1
								{
									OFFSET	 0.000000	 0.000000	 0.086006
									CHANNELS 3 Zrotation Xrotation Yrotation
									JOINT LeftHandIndex2
									{
										OFFSET	 0.000000	 0.000000	 0.047236
										CHANNELS 3 Zrotation Xrotation Yrotation
										JOINT LeftHandIndex3
										{
											OFFSET	-0.004284	-0.000551	 0.038166
											CHANNELS 3 Zrotation Xrotation Yrotation
											End Site
											{
												OFFSET	-0.004284	-0.000551	 0.038166
											}
										}
									}
								}
							}
						}
					}
				}
				JOINT Neck
				{
					OFFSET	 0.000000	 0.000000	 0.176489
					CHANNELS 3 Zrotation Xrotation Yrotation
					JOINT Head
					{
						OFFSET	 0.000000	-0.001747	 0.077940
						CHANNELS 3 Zrotation Xrotation Yrotation
						End Site
						{
							OFFSET	 0.000000	-0.001747	 0.077940
						}
					}
				}
				JOINT RightShoulder
				{
					OFFSET	-0.080363	 0.000306	 0.159706
					CHANNELS 3 Zrotation Xrotation Yrotation
					JOINT RightArm
					{
						OFFSET	 0.000000	 0.000000	 0.164196
						CHANNELS 3 Zrotation Xrotation Yrotation
						JOINT RightForeArm
						{
							OFFSET	 0.000000	 0.000000	 0.365611
							CHANNELS 3 Zrotation Xrotation Yrotation
							JOINT RightHand
							{
								OFFSET	 0.000000	 0.000000	 0.360648
								CHANNELS 3 Zrotation Xrotation Yrotation
								JOINT RightHandIndex1
								{
									OFFSET	 0.000000	 0.000000	 0.069977
									CHANNELS 3 Zrotation Xrotation Yrotation
									JOINT RightHandIndex2
									{
										OFFSET	 0.000000	 0.000000	 0.052305
										CHANNELS 3 Zrotation Xrotation Yrotation
										JOINT RightHandIndex3
										{
											OFFSET	 0.009002	-0.000782	 0.042196
											CHANNELS 3 Zrotation Xrotation Yrotation
											End Site
											{
												OFFSET	 0.009002	-0.000782	 0.042196
											}
										}
									}
								}
							}
						}
					}
				}
			}
		}
	}
}
MOTION
Frames:    5
Frame Time: 0.03333334
 4.111988	 0.037940	-0.090599	 95.487250	-2.130659	 0.305112	 6.703265	-3.113652	-178.804900	-2.308094	-36.043120	 1.416276	 7.074434	 89.615890	-5.817866	-2.376057	 30.445510	-0.043682	 1.454609	-28.741010	 179.414600	 23.191040	-74.069800	 26.671810	 169.669900	 89.664860	-162.416100	 2.379011	 29.588330	 0.026165	 23.785830	 4.960460	 1.305855	-13.295010	-0.477850	 0.481257	-14.674120	-2.497726	-1.295400	-91.801490	 77.974440	 178.931200	 35.806590	 63.902110	-47.185720	-25.974060	 8.190502	-35.612140	 40.086890	-18.726600	 7.128370	-3.812334	 37.924440	-2.927599	-2.450526	 36.184240	 0.754587	-1.378229	 35.397820	-2.634230	-0.309690	 4.027179	-1.741322	-3.342326	-11.946050	-2.468663	 89.794880	 78.851610	 179.551000	-41.877040	 71.334140	 44.128810	 19.115970	 3.958962	 33.283180	-48.804940	-22.104840	-4.193151	 6.437017	 35.671460	-0.771858	 2.830251	 35.756010	-7.813440	-2.350882	 35.473990	 5.254307
 4.134309	 0.041843	-0.092294	 95.596150	-2.056289	-0.020097	 6.361798	-1.523564	-178.299100	-2.623019	-34.981770	 1.148251	 26.904400	 89.955760	-26.015790	-2.376480	 30.367950	-0.041956	 1.695554	-30.297280	 179.512800	 19.346920	-71.446040	 22.760660	 179.822900	 88.983170	-172.424500	 2.378322	 29.725460	 0.029181	 22.497230	 4.933402	 1.651531	-13.318610	-0.498111	 0.459716	-14.610050	-2.527328	-1.293452	-91.792480	 78.190610	 178.879700	 35.583700	 63.291890	-47.745750	-24.705290	 7.484026	-36.244010	 41.709490	-18.544240	 7.652017	-3.812334	 37.924440	-2.927599	-2.450526	 36.184240	 0.754587	-1.378229	 35.397820	-2.634230	-0.324887	 4.062815	-1.973977	-3.254352	-12.085540	-2.327353	 89.791340	 78.636790	 179.509300	-41.777970	 71.384830	 43.632450	 18.138110	 3.240607	 33.535300	-50.274150	-21.986760	-4.804505	 6.437017	 35.671460	-0.771858	 2.830251	 35.756010	-7.813440	-2.350882	 35.473990	 5.254307
 4.158514	 0.045897	-0.093725	 95.710580	-1.884464	-0.348444	 6.115313	 0.397295	-177.769900	-2.892154	-33.327030	 0.994010	 51.083710	 89.955760	-50.410810	-2.376475	 30.367500	-0.041949	 1.886245	-31.728700	 179.660600	 15.943530	-68.166110	 19.177980	-177.427700	 88.788560	-175.028100	 2.377736	 29.840370	 0.031714	 21.006610	 4.874856	 2.022918	-13.332940	-0.516178	 0.435534	-14.543870	-2.552816	-1.290758	-91.781270	 78.427670	 178.825100	 35.296200	 62.687570	-48.289440	-23.329830	 6.623597	-36.795040	 43.456210	-18.275940	 8.126745	-3.812334	 37.924440	-2.927599	-2.450526	 36.184240	 0.754587	-1.378229	 35.397820	-2.634230	-0.344609	 4.121863	-2.213215	-3.172586	-12.252720	-2.219333	 89.786600	 78.402250	 179.479100	-41.699790	 71.446110	 43.189400	 17.082870	 2.430375	 33.653760	-51.808470	-21.797540	-5.391203	 6.437017	 35.671460	-0.771858	 2.830251	 35.756010	-7.813440	-2.350882	 35.473990	 5.254307
 4.181798	 0.049564	-0.094834	 95.809540	-1.705067	-0.591343	 5.993039	 2.415942	-177.383000	-3.096867	-31.284200	 0.943621	 17.389000	 89.795370	-16.783680	-2.375451	 30.556510	-0.046151	 2.004609	-32.857510	 179.752800	 13.415290	-64.685200	 16.381910	-174.311900	 88.959390	-177.998600	 2.377727	 29.842210	 0.031758	 19.490700	 4.805882	 2.301759	-13.330040	-0.523261	 0.414285	-14.482650	-2.564115	-1.286693	-91.772000	 78.605290	 178.784800	 35.035490	 62.149390	-48.783160	-22.118000	 5.797358	-37.175570	 44.956280	-17.972340	 8.505899	-3.812334	 37.924440	-2.927599	-2.450526	 36.184240	 0.754587	-1.378229	 35.397820	-2.634230	-0.362827	 4.189604	-2.416031	-3.113587	-12.397230	-2.162904	 89.782520	 78.220840	 179.460300	-41.649820	 71.513700	 42.858680	 16.071380	 1.626934	 33.605110	-53.224770	-21.562340	-5.874879	 6.437017	 35.671460	-0.771858	 2.830251	 35.756010	-7.813440	-2.350882	 35.473990	 5.254307
 4.205071	 0.053054	-0.095776	 95.891970	-1.510258	-0.747808	 5.992848	 4.593748	-177.098300	-3.332782	-28.838600	 0.942819	 11.108440	 89.565240	-10.492470	-2.372961	 31.005250	-0.056176	 2.111119	-33.780770	 179.767800	 11.489320	-60.993470	 14.143980	-169.203800	 89.170080	 177.064500	 2.380002	 29.386990	 0.021736	 17.908730	 4.724926	 2.480846	-13.299190	-0.528062	 0.399048	-14.414940	-2.569037	-1.281232	-91.764960	 78.731640	 178.762000	 34.834510	 61.642760	-49.268780	-21.002320	 4.996633	-37.406510	 46.253890	-17.630480	 8.807008	-3.812334	 37.924440	-2.927599	-2.450526	 36.184240	 0.754587	-1.378229	 35.397820	-2.634230	-0.368091	 4.259135	-2.583824	-3.070702	-12.520240	-2.136798	 89.779720	 78.101170	 179.449500	-41.608490	 71.593610	 42.602090	 15.058900	 0.805978	 33.388180	-54.584990	-21.282090	-6.276953	 6.437017	 35.671460	-0.771858	 2.830251	 35.756010	-7.813440	-2.350882	 35.473990	 5.254307
